<?xml version="1.0" encoding="UTF-8" standalone="no"?>
<!-- Created with Inkscape (http://www.inkscape.org/) -->

<svg
   xmlns:dc="http://purl.org/dc/elements/1.1/"
   xmlns:cc="http://creativecommons.org/ns#"
   xmlns:rdf="http://www.w3.org/1999/02/22-rdf-syntax-ns#"
   xmlns:svg="http://www.w3.org/2000/svg"
   xmlns="http://www.w3.org/2000/svg"
   xmlns:sodipodi="http://sodipodi.sourceforge.net/DTD/sodipodi-0.dtd"
   xmlns:inkscape="http://www.inkscape.org/namespaces/inkscape"
   width="744.09448819"
   height="1052.3622047"
   id="svg2"
   version="1.1"
   inkscape:version="0.48.4 r9939"
   sodipodi:docname="surface_wave.eps">
  <defs
     id="defs4">
    <marker
       inkscape:stockid="Arrow1Send"
       orient="auto"
       refY="0.0"
       refX="0.0"
       id="Arrow1Send"
       style="overflow:visible;">
      <path
         id="path3774"
         d="M 0.0,0.0 L 5.0,-5.0 L -12.5,0.0 L 5.0,5.0 L 0.0,0.0 z "
         style="fill-rule:evenodd;stroke:#000000;stroke-width:1.0pt;"
         transform="scale(0.2) rotate(180) translate(6,0)" />
    </marker>
    <marker
       inkscape:stockid="Arrow1Lend"
       orient="auto"
       refY="0.0"
       refX="0.0"
       id="Arrow1Lend"
       style="overflow:visible;">
      <path
         id="path3762"
         d="M 0.0,0.0 L 5.0,-5.0 L -12.5,0.0 L 5.0,5.0 L 0.0,0.0 z "
         style="fill-rule:evenodd;stroke:#000000;stroke-width:1.0pt;"
         transform="scale(0.8) rotate(180) translate(12.5,0)" />
    </marker>
    <marker
       inkscape:stockid="Arrow1Mend"
       orient="auto"
       refY="0.0"
       refX="0.0"
       id="Arrow1Mend"
       style="overflow:visible;">
      <path
         id="path3768"
         d="M 0.0,0.0 L 5.0,-5.0 L -12.5,0.0 L 5.0,5.0 L 0.0,0.0 z "
         style="fill-rule:evenodd;stroke:#000000;stroke-width:1.0pt;"
         transform="scale(0.4) rotate(180) translate(10,0)" />
    </marker>
    <marker
       inkscape:stockid="Arrow1Lstart"
       orient="auto"
       refY="0.0"
       refX="0.0"
       id="Arrow1Lstart"
       style="overflow:visible">
      <path
         id="path3759"
         d="M 0.0,0.0 L 5.0,-5.0 L -12.5,0.0 L 5.0,5.0 L 0.0,0.0 z "
         style="fill-rule:evenodd;stroke:#000000;stroke-width:1.0pt"
         transform="scale(0.8) translate(12.5,0)" />
    </marker>
    <marker
       inkscape:stockid="Arrow1Mstart"
       orient="auto"
       refY="0.0"
       refX="0.0"
       id="Arrow1Mstart"
       style="overflow:visible">
      <path
         id="path3765"
         d="M 0.0,0.0 L 5.0,-5.0 L -12.5,0.0 L 5.0,5.0 L 0.0,0.0 z "
         style="fill-rule:evenodd;stroke:#000000;stroke-width:1.0pt"
         transform="scale(0.4) translate(10,0)" />
    </marker>
  </defs>
  <sodipodi:namedview
     id="base"
     pagecolor="#ffffff"
     bordercolor="#666666"
     borderopacity="1.0"
     inkscape:pageopacity="0.0"
     inkscape:pageshadow="2"
     inkscape:zoom="0.70710678"
     inkscape:cx="-136.51769"
     inkscape:cy="508.70057"
     inkscape:document-units="px"
     inkscape:current-layer="layer1"
     showgrid="false"
     inkscape:window-width="1920"
     inkscape:window-height="1058"
     inkscape:window-x="1912"
     inkscape:window-y="-8"
     inkscape:window-maximized="1" />
  <metadata
     id="metadata7">
    <rdf:RDF>
      <cc:Work
         rdf:about="">
        <dc:format>image/svg+xml</dc:format>
        <dc:type
           rdf:resource="http://purl.org/dc/dcmitype/StillImage" />
        <dc:title></dc:title>
      </cc:Work>
    </rdf:RDF>
  </metadata>
  <g
     inkscape:label="Layer 1"
     inkscape:groupmode="layer"
     id="layer1">
    <path
       style="fill:none;stroke:#000000;stroke-width:2;stroke-linecap:butt;stroke-linejoin:miter;stroke-opacity:1;marker-start:url(#Arrow1Mstart);stroke-miterlimit:4;stroke-dasharray:6, 6;stroke-dashoffset:1.99999997999999990"
       d="M 70,28.076468 70,225.21933"
       id="path2985"
       inkscape:connector-curvature="0" />
    <path
       style="fill:none;stroke:#000000;stroke-width:2;stroke-linecap:butt;stroke-linejoin:miter;stroke-miterlimit:4;stroke-opacity:1;stroke-dasharray:6, 6;stroke-dashoffset:2;marker-start:none;marker-end:url(#Arrow1Mend)"
       d="m 41.428572,199.50504 c 118.972588,0 160.906908,0 209.999998,0"
       id="path4569"
       inkscape:connector-curvature="0"
       sodipodi:nodetypes="cc" />
    <text
       xml:space="preserve"
       style="font-size:40px;font-style:normal;font-variant:normal;font-weight:normal;font-stretch:normal;line-height:125%;letter-spacing:0px;word-spacing:0px;fill:#000000;fill-opacity:1;stroke:none;font-family:CMU Serif;-inkscape-font-specification:CMU Serif"
       x="237.17155"
       y="232.29041"
       id="text3002"
       sodipodi:linespacing="125%"><tspan
         sodipodi:role="line"
         id="tspan3004"
         x="237.17155"
         y="232.29041"
         style="font-size:56px;font-style:oblique;font-variant:normal;font-weight:normal;font-stretch:normal;font-family:CMU Classical Serif;-inkscape-font-specification:CMU Classical Serif Oblique">x</tspan></text>
    <text
       xml:space="preserve"
       style="font-size:40px;font-style:oblique;font-variant:normal;font-weight:normal;font-stretch:normal;line-height:125%;letter-spacing:0px;word-spacing:0px;fill:#000000;fill-opacity:1;stroke:none;font-family:CMU Classical Serif;-inkscape-font-specification:CMU Classical Serif Oblique"
       x="31.529076"
       y="39.505039"
       id="text3010"
       sodipodi:linespacing="125%"><tspan
         sodipodi:role="line"
         id="tspan3012"
         x="31.529076"
         y="39.505039"
         style="font-size:56px">z</tspan></text>
    <path
       style="fill:none;stroke:#000000;stroke-width:1;stroke-linecap:butt;stroke-linejoin:miter;stroke-miterlimit:4;stroke-opacity:1;stroke-dasharray:none"
       d="m -0.057432,403.77639 257.142852,0 44,0 c 61.80298,-0.36136 51.86488,-94.66506 80.46697,-102.51794 28.54008,8.38945 33.11402,102.27924 59.51867,101.08937 l 303.72865,0.85714"
       id="path4008"
       inkscape:connector-curvature="0"
       sodipodi:nodetypes="cccccc" />
    <path
       style="fill:none;stroke:#000000;stroke-width:1;stroke-linecap:butt;stroke-linejoin:miter;stroke-miterlimit:4;stroke-opacity:1;stroke-dasharray:none"
       d="m 0.285714,652.36218 148.285716,1.42857 c 109.63937,-7.00139 74.96106,-74.587 112.85714,-80 32.10227,3.15206 24.2897,79.61347 88.57143,78.57143 l 395.71429,0"
       id="path4010"
       inkscape:connector-curvature="0"
       sodipodi:nodetypes="ccccc" />
    <path
       style="fill:none;stroke:#000000;stroke-width:2;stroke-linecap:butt;stroke-linejoin:miter;stroke-miterlimit:4;stroke-opacity:1;stroke-dasharray:none"
       d="M -1.142857,876.6479 744,875.21932"
       id="path4012"
       inkscape:connector-curvature="0"
       sodipodi:nodetypes="cc" />
    <text
       xml:space="preserve"
       style="font-size:56px;font-style:oblique;font-variant:normal;font-weight:normal;font-stretch:normal;line-height:125%;letter-spacing:0px;word-spacing:0px;fill:#000000;fill-opacity:1;stroke:none;font-family:CMU Classical Serif;-inkscape-font-specification:CMU Classical Serif Oblique"
       x="22.225477"
       y="919.49066"
       id="text4014"
       sodipodi:linespacing="125%"><tspan
         sodipodi:role="line"
         id="tspan4016"
         x="22.225477"
         y="919.49066">z=-h</tspan></text>
    <text
       xml:space="preserve"
       style="font-size:56px;font-style:oblique;font-variant:normal;font-weight:normal;font-stretch:normal;line-height:125%;letter-spacing:0px;word-spacing:0px;fill:#000000;fill-opacity:1;stroke:none;font-family:CMU Serif;-inkscape-font-specification:CMU Serif Oblique"
       x="404.28574"
       y="300.07651"
       id="text4018"
       sodipodi:linespacing="125%"><tspan
         sodipodi:role="line"
         id="tspan4020"
         x="404.28574"
         y="300.07651">z=η</tspan></text>
    <text
       xml:space="preserve"
       style="font-size:40px;font-style:oblique;font-variant:normal;font-weight:normal;font-stretch:normal;line-height:125%;letter-spacing:0px;word-spacing:0px;fill:#000000;fill-opacity:1;stroke:none;font-family:CMU Classical Serif;-inkscape-font-specification:CMU Classical Serif Oblique"
       x="382"
       y="613.24811"
       id="text4022"
       sodipodi:linespacing="125%"><tspan
         sodipodi:role="line"
         id="tspan4024"
         x="382"
         y="613.24811">1</tspan></text>
    <text
       xml:space="preserve"
       style="font-size:56px;font-style:oblique;font-variant:normal;font-weight:normal;font-stretch:normal;line-height:125%;letter-spacing:0px;word-spacing:0px;fill:#000000;fill-opacity:1;stroke:none;font-family:CMU Serif;-inkscape-font-specification:CMU Serif Oblique"
       x="519.02655"
       y="302.948"
       id="text4026"
       sodipodi:linespacing="125%"><tspan
         sodipodi:role="line"
         id="tspan4028"
         x="519.02655"
         y="302.948">(x,t)</tspan></text>
    <text
       xml:space="preserve"
       style="font-size:56px;font-style:oblique;font-variant:normal;font-weight:normal;font-stretch:normal;line-height:125%;letter-spacing:0px;word-spacing:0px;fill:#000000;fill-opacity:1;stroke:none;font-family:CMU Serif;-inkscape-font-specification:CMU Serif Oblique"
       x="290.28717"
       y="582.46271"
       id="text4030"
       sodipodi:linespacing="125%"><tspan
         sodipodi:role="line"
         id="tspan4032"
         x="290.28717"
         y="582.46271">z=η</tspan></text>
    <text
       xml:space="preserve"
       style="font-size:56px;font-style:oblique;font-variant:normal;font-weight:normal;font-stretch:normal;line-height:125%;letter-spacing:0px;word-spacing:0px;fill:#000000;fill-opacity:1;stroke:none;font-family:CMU Classical Serif;-inkscape-font-specification:CMU Classical Serif Oblique"
       x="396.87924"
       y="590.91437"
       id="text4042"
       sodipodi:linespacing="125%"><tspan
         sodipodi:role="line"
         id="tspan4044"
         x="396.87924"
         y="590.91437">(x,t)</tspan></text>
    <text
       xml:space="preserve"
       style="font-size:40px;font-style:oblique;font-variant:normal;font-weight:normal;font-stretch:normal;line-height:125%;letter-spacing:0px;word-spacing:0px;fill:#000000;fill-opacity:1;stroke:none;font-family:CMU Classical Serif;-inkscape-font-specification:CMU Classical Serif Oblique"
       x="634.98187"
       y="303.21378"
       id="text4046"
       sodipodi:linespacing="125%"><tspan
         sodipodi:role="line"
         id="tspan4048"
         x="634.98187"
         y="303.21378"
         style="font-size:56px">+H</tspan></text>
    <text
       xml:space="preserve"
       style="font-size:56px;font-style:oblique;font-variant:normal;font-weight:normal;font-stretch:normal;line-height:125%;letter-spacing:0px;word-spacing:0px;fill:#000000;fill-opacity:1;stroke:none;font-family:CMU Classical Serif;-inkscape-font-specification:CMU Classical Serif Oblique"
       x="28.284267"
       y="449.90717"
       id="text4050"
       sodipodi:linespacing="125%"><tspan
         sodipodi:role="line"
         id="tspan4052"
         x="28.284267"
         y="449.90717">z=H</tspan></text>
    <text
       xml:space="preserve"
       style="font-size:56px;font-style:oblique;font-variant:normal;font-weight:normal;font-stretch:normal;line-height:125%;letter-spacing:0px;word-spacing:0px;fill:#000000;fill-opacity:1;stroke:none;font-family:CMU Classical Serif;-inkscape-font-specification:CMU Classical Serif Oblique"
       x="22.627419"
       y="695.98035"
       id="text4054"
       sodipodi:linespacing="125%"><tspan
         sodipodi:role="line"
         id="tspan4056"
         x="22.627419"
         y="695.98035">z=0</tspan></text>
    <text
       xml:space="preserve"
       style="font-size:56px;font-style:oblique;font-variant:normal;font-weight:normal;font-stretch:normal;line-height:125%;letter-spacing:0px;word-spacing:0px;fill:#000000;fill-opacity:1;stroke:none;font-family:CMU Classical Serif;-inkscape-font-specification:CMU Classical Serif Oblique"
       x="580.98431"
       y="485.28815"
       id="text4058-1"
       sodipodi:linespacing="125%"><tspan
         sodipodi:role="line"
         id="tspan4060-7"
         x="580.98431"
         y="485.28815">ρ</tspan></text>
    <text
       xml:space="preserve"
       style="font-size:40px;font-style:oblique;font-variant:normal;font-weight:normal;font-stretch:normal;line-height:125%;letter-spacing:0px;word-spacing:0px;fill:#000000;fill-opacity:1;stroke:none;font-family:CMU Classical Serif;-inkscape-font-specification:CMU Classical Serif Oblique"
       x="593.31287"
       y="513.9754"
       id="text4087"
       sodipodi:linespacing="125%"><tspan
         sodipodi:role="line"
         id="tspan4089"
         x="593.31287"
         y="513.9754">2</tspan></text>
    <text
       xml:space="preserve"
       style="font-size:56px;font-style:oblique;font-variant:normal;font-weight:normal;font-stretch:normal;line-height:125%;letter-spacing:0px;word-spacing:0px;fill:#000000;fill-opacity:1;stroke:none;font-family:CMU Classical Serif;-inkscape-font-specification:CMU Classical Serif Oblique"
       x="570.68536"
       y="557.81592"
       id="text4099"
       sodipodi:linespacing="125%"><tspan
         sodipodi:role="line"
         id="tspan4101"
         x="570.68536"
         y="557.81592">ω</tspan></text>
    <text
       xml:space="preserve"
       style="font-size:40px;font-style:oblique;font-variant:normal;font-weight:normal;font-stretch:normal;line-height:125%;letter-spacing:0px;word-spacing:0px;fill:#000000;fill-opacity:1;stroke:none;font-family:CMU Classical Serif;-inkscape-font-specification:CMU Classical Serif Oblique"
       x="601.7981"
       y="577.61493"
       id="text4103"
       sodipodi:linespacing="125%"><tspan
         sodipodi:role="line"
         id="tspan4105"
         x="601.7981"
         y="577.61493">2</tspan></text>
    <text
       xml:space="preserve"
       style="font-size:40px;font-style:oblique;font-variant:normal;font-weight:normal;font-stretch:normal;line-height:125%;letter-spacing:0px;word-spacing:0px;fill:#000000;fill-opacity:1;stroke:none;font-family:CMU Classical Serif;-inkscape-font-specification:CMU Classical Serif Oblique"
       x="952"
       y="202.36218"
       id="text4199"
       sodipodi:linespacing="125%"><tspan
         sodipodi:role="line"
         id="tspan4201"
         x="952"
         y="202.36218" /></text>
    <text
       xml:space="preserve"
       style="font-size:40px;font-style:oblique;font-variant:normal;font-weight:normal;font-stretch:normal;line-height:125%;letter-spacing:0px;word-spacing:0px;fill:#000000;fill-opacity:1;stroke:none;font-family:CMU Classical Serif;-inkscape-font-specification:CMU Classical Serif Oblique"
       x="497.80319"
       y="332.91229"
       id="text4203"
       sodipodi:linespacing="125%"><tspan
         sodipodi:role="line"
         id="tspan4205"
         x="497.80319"
         y="332.91229">2</tspan></text>
    <flowRoot
       xml:space="preserve"
       id="flowRoot4228"
       style="fill:black;stroke:none;stroke-opacity:1;stroke-width:1px;stroke-linejoin:miter;stroke-linecap:butt;fill-opacity:1;font-family:CMU Classical Serif;font-style:oblique;font-weight:normal;font-size:40px;line-height:125%;letter-spacing:0px;word-spacing:0px;-inkscape-font-specification:CMU Classical Serif Oblique;font-stretch:normal;font-variant:normal"><flowRegion
         id="flowRegion4230"><rect
           id="rect4232"
           width="35.355339"
           height="45.254833"
           x="691.55042"
           y="336.77011" /></flowRegion><flowPara
         id="flowPara4234" /></flowRoot>    <text
       xml:space="preserve"
       style="font-size:56px;font-style:oblique;font-variant:normal;font-weight:normal;font-stretch:normal;line-height:125%;letter-spacing:0px;word-spacing:0px;fill:#000000;fill-opacity:1;stroke:none;font-family:CMU Classical Serif;-inkscape-font-specification:CMU Classical Serif Oblique"
       x="577.05463"
       y="716.9068"
       id="text4058-1-9"
       sodipodi:linespacing="125%"><tspan
         sodipodi:role="line"
         id="tspan4060-7-4"
         x="577.05463"
         y="716.9068">ρ</tspan></text>
    <text
       xml:space="preserve"
       style="font-size:40px;font-style:oblique;font-variant:normal;font-weight:normal;font-stretch:normal;line-height:125%;letter-spacing:0px;word-spacing:0px;fill:#000000;fill-opacity:1;stroke:none;font-family:CMU Classical Serif;-inkscape-font-specification:CMU Classical Serif Oblique"
       x="589.38318"
       y="745.59406"
       id="text4087-8"
       sodipodi:linespacing="125%"><tspan
         sodipodi:role="line"
         id="tspan4089-8"
         x="589.38318"
         y="745.59406">1</tspan></text>
    <text
       xml:space="preserve"
       style="font-size:56px;font-style:oblique;font-variant:normal;font-weight:normal;font-stretch:normal;line-height:125%;letter-spacing:0px;word-spacing:0px;fill:#000000;fill-opacity:1;stroke:none;font-family:CMU Classical Serif;-inkscape-font-specification:CMU Classical Serif Oblique"
       x="566.75568"
       y="789.43457"
       id="text4099-2"
       sodipodi:linespacing="125%"><tspan
         sodipodi:role="line"
         id="tspan4101-4"
         x="566.75568"
         y="789.43457">ω</tspan></text>
    <text
       xml:space="preserve"
       style="font-size:40px;font-style:oblique;font-variant:normal;font-weight:normal;font-stretch:normal;line-height:125%;letter-spacing:0px;word-spacing:0px;fill:#000000;fill-opacity:1;stroke:none;font-family:CMU Classical Serif;-inkscape-font-specification:CMU Classical Serif Oblique"
       x="597.86841"
       y="809.23358"
       id="text4103-5"
       sodipodi:linespacing="125%"><tspan
         sodipodi:role="line"
         id="tspan4105-5"
         x="597.86841"
         y="809.23358">1</tspan></text>
    <path
       style="fill:none;stroke:#000000;stroke-width:1px;stroke-linecap:butt;stroke-linejoin:miter;stroke-opacity:1"
       d="m -1,403.36218 1,473"
       id="path3197"
       inkscape:connector-curvature="0" />
    <path
       style="fill:none;stroke:#000000;stroke-width:1px;stroke-linecap:butt;stroke-linejoin:miter;stroke-opacity:1"
       d="m 745,402.36218 0,473"
       id="path3199"
       inkscape:connector-curvature="0" />
    <path
       style="fill:none;stroke:#000000;stroke-width:1px;stroke-linecap:butt;stroke-linejoin:miter;stroke-opacity:1"
       d="m -1,875.36218 1,178.00002 746,-1 -2,-177.00002"
       id="path3207"
       inkscape:connector-curvature="0" />
    <path
       style="opacity:0.30530975999999999;fill:#0052db;fill-opacity:0.44444442;stroke:#000000;stroke-width:2;stroke-miterlimit:4;stroke-opacity:1;stroke-dasharray:none;stroke-dashoffset:4"
       d="m 0.71694018,764.33841 0,-110.84551 81.74999982,0.18716 c 81.60791,0.18685 81.76738,0.18324 91.75,-2.0734 21.33771,-4.82354 35.00159,-11.03529 45.14385,-20.52288 7.88927,-7.38001 12.33868,-14.49227 20.32214,-32.4843 7.89459,-17.79175 13.08136,-23.23225 22.14877,-23.23225 7.88821,0 14.59684,7.4941 24.6177,27.5 15.48916,30.92298 25.17819,41.63694 43.19541,47.76476 l 6.57213,2.23524 203.75,0.26647 203.75,0.26646 0,109.86255 0,109.86255 -77.25,0.6035 c -42.4875,0.33192 -209.6625,0.79512 -371.5,1.02933 l -294.24999982,0.42584 0,-110.84552 z M 614.71694,808.36723 c 0,-0.55 -0.93032,-1 -2.06739,-1 -1.50053,0 -1.92469,-0.47983 -1.54696,-1.75 2.1094,-7.09315 5.61517,-22.58252 5.2042,-22.99349 -0.27796,-0.27795 -1.90891,0.67562 -3.62434,2.11906 -1.71543,1.44344 -3.75943,2.62443 -4.54224,2.62443 -0.7828,0 -1.42327,0.50246 -1.42327,1.11658 0,0.65472 1.04437,0.91693 2.52488,0.63391 1.97264,-0.37709 2.4231,-0.12918 2.05953,1.13342 -0.25596,0.88885 -0.96747,3.64109 -1.58114,6.11609 -2.26954,9.15325 -3.11263,11 -5.02181,11 -1.02488,0 -2.14154,0.45 -2.48146,1 -0.38803,0.62784 1.82295,1 5.94098,1 3.70601,0 6.55902,-0.43497 6.55902,-1 l 0,0 z m -31.35098,-20.37452 2.76054,-2.37452 1.8678,2.37452 c 2.36351,3.00471 7.77723,3.1839 11.70453,0.38742 3.68859,-2.62651 6.27199,-9.1427 5.42168,-13.67525 -0.81677,-4.35373 -4.90887,-9.33765 -7.66678,-9.33765 l -2.08542,0 2.04308,2.25 c 5.83862,6.42996 2.25869,18.75 -5.44834,18.75 -3.16468,0 -3.76054,-2.25705 -1.85388,-7.02227 2.11493,-5.28571 2.02834,-6.97773 -0.35705,-6.97773 -2.42698,0 -4.03518,2.83186 -4.03518,7.10552 0,3.63186 -2.40565,6.89448 -5.08356,6.89448 -2.4088,0 -4.91644,-2.68068 -4.91644,-5.2557 0,-3.7698 4.12379,-10.75632 7.83906,-13.28091 2.49219,-1.69349 3.0633,-2.46339 1.82733,-2.46339 -3.85274,0 -10.66559,5.24255 -13.25567,10.20034 -1.86606,3.57193 -1.79368,9.8079 0.14598,12.57715 2.14083,3.05646 7.44679,2.98374 11.09232,-0.15201 z m 22.85098,-42.62548 c 0.33992,-0.55 0.25398,-1.00689 -0.19098,-1.01531 -0.44496,-0.008 -1.39714,-0.38831 -2.11595,-0.8442 -1.04987,-0.66586 -0.80401,-2.81289 1.25,-10.91591 1.40631,-5.54786 2.55693,-11.05797 2.55693,-12.24469 0,-2.1168 -0.0583,-2.10863 -3.07673,0.43122 -1.69219,1.42389 -3.71719,2.58889 -4.5,2.58889 -0.7828,0 -1.42327,0.45 -1.42327,1 0,0.55 0.9,1 2,1 2.43534,0 2.44282,-0.69319 -0.10202,9.45339 -1.79941,7.17447 -2.44723,8.46765 -4.5,8.98286 -1.31889,0.33102 -2.39798,1.04328 -2.39798,1.5828 0,1.29229 11.70057,1.27446 12.5,-0.019 l 0,-5e-5 z m -23.93722,-21.75 c 0.93456,-4.2625 1.84383,-7.91607 2.02059,-8.11905 0.17677,-0.20297 1.04996,0.35953 1.94044,1.25 1.98597,1.98597 4.50909,2.04997 8.87649,0.22516 6.4789,-2.70706 11.26477,-12.38316 9.44945,-19.10495 -1.07416,-3.97739 -3.3734,-5.50195 -8.29088,-5.49742 -4.99969,0.005 -9.92745,2.87455 -12.07875,7.03471 -1.5315,2.9616 -8.45097,28.04863 -8.47081,30.71155 -0.005,0.6875 1.085,1.25 2.42248,1.25 2.22036,0 2.57952,-0.6738 4.13099,-7.75 l 0,0 z m -553.06278,-28.25 c 0.995486,-1.1 2.345486,-2 3,-2 0.654514,0 2.004514,0.9 3,2 0.995486,1.1 2.674846,2 3.731911,2 2.56003,0 7.768089,-5.31197 7.768089,-7.92308 0,-2.58949 -1.598633,-2.6954 -2.937036,-0.19457 -1.354422,2.53076 -3.6538,3.28504 -7.700189,2.52593 l -3.368739,-0.63198 8.002982,-8.4546 c 7.596815,-8.02551 9.56012,-11.3217 6.743529,-11.3217 -0.692699,0 -1.850977,0.94718 -2.573949,2.10485 l -1.314496,2.10483 -2.240502,-2.10483 c -1.232276,-1.15767 -3.301066,-2.10485 -4.597311,-2.10485 -2.897246,0 -6.014289,2.67169 -6.014289,5.15499 0,2.23214 1.308897,2.38266 3,0.34501 1.473599,-1.77558 2.02067,-1.82284 5.553273,-0.47975 l 2.683473,1.02026 -8.118373,8.45629 c -4.465105,4.65095 -8.118373,9.14184 -8.118373,9.97974 0,2.09146 1.341258,1.90884 3.5,-0.47654 z m 81.9679,-2.30516 c 4.80299,-5.01268 8.5405,-15.73674 8.53527,-24.49029 -0.004,-6.2973 -2.9941,-10.20455 -7.80983,-10.20455 -8.92222,0 -17.19334,14.2925 -17.19334,29.7101 0,6.78153 2.206363,9.2899 8.17142,9.2899 3.61048,0 4.72611,-0.57891 8.29648,-4.30516 z m -24.4679,-5.69484 c 0,-0.62857 -6.5,-1 -17.5,-1 -11,0 -17.5,0.37143 -17.5,1 0,0.62857 6.5,1 17.5,1 11,0 17.5,-0.37143 17.5,-1 z m 2.5,-11 c -0.37267,-0.60299 -7.343718,-1 -17.559017,-1 -10.627322,0 -16.940983,0.37269 -16.940983,1 0,0.6287 6.519672,1 17.559017,1 11.451367,0 17.344043,-0.34784 16.940983,-1 z"
       id="path3215"
       inkscape:connector-curvature="0" />
    <path
       style="opacity:0.30530975999999999;fill:#004ed9;fill-opacity:0.43915343;stroke:#000000;stroke-width:2;stroke-miterlimit:4;stroke-opacity:1;stroke-dasharray:none;stroke-dashoffset:4"
       d="m 587.32393,713.78545 c -1.74048,-4.53563 0.24579,-12.38816 4.21617,-16.66822 8.41026,-9.06624 11.72378,7.00808 3.40126,16.5 -1.92384,2.19417 -6.79869,2.30182 -7.61743,0.16822 z"
       id="path3217"
       inkscape:connector-curvature="0" />
    <path
       style="opacity:0.30530975999999999;fill:#0050d8;fill-opacity:0.44444442;stroke:#000000;stroke-width:2;stroke-miterlimit:4;stroke-opacity:1;stroke-dasharray:none;stroke-dashoffset:4"
       d="m 99.671401,692.74746 c -0.757997,-1.99369 -0.396879,-5.10605 1.511039,-13.02314 1.37889,-5.72185 3.19761,-11.73871 4.0416,-13.37081 3.06452,-5.92613 8.85272,-7.38516 10.06924,-2.53815 0.65453,2.60787 -3.05677,19.17395 -5.65183,25.22798 -2.76876,6.45926 -8.16089,8.46256 -9.970049,3.70412 z"
       id="path3219"
       inkscape:connector-curvature="0" />
    <path
       style="opacity:0.30530976;fill:#00baf2;fill-opacity:0.44444442;stroke:#000000;stroke-width:2;stroke-miterlimit:4;stroke-opacity:1;stroke-dasharray:none;stroke-dashoffset:4"
       d=""
       id="path4023"
       inkscape:connector-curvature="0" />
    <path
       style="opacity:0.30530976;fill:#00baf2;fill-opacity:0.44444442;stroke:#000000;stroke-width:2;stroke-miterlimit:4;stroke-opacity:1;stroke-dasharray:none;stroke-dashoffset:4"
       d=""
       id="path4025"
       inkscape:connector-curvature="0" />
    <path
       style="opacity:0.30530976;fill:#00baf2;fill-opacity:0.44444442;stroke:#000000;stroke-width:2;stroke-miterlimit:4;stroke-opacity:1;stroke-dasharray:none;stroke-dashoffset:4"
       d="m 601.31694,499.17144 c 0,-1.65742 2.34324,-6.80421 3.09783,-6.80421 1.65865,0 0.9265,3.66801 -1.09783,5.5 -1.1,0.99549 -2,1.58238 -2,1.30421 z"
       id="path4027"
       inkscape:connector-curvature="0" />
    <path
       style="opacity:0.30530976;fill:#00baf2;fill-opacity:0.44444442;stroke:#000000;stroke-width:2;stroke-miterlimit:4;stroke-opacity:1;stroke-dasharray:none;stroke-dashoffset:4"
       d=""
       id="path4029"
       inkscape:connector-curvature="0" />
    <path
       style="opacity:0.30530976;fill:#00baf2;fill-opacity:0.44444442;stroke:#000000;stroke-width:2;stroke-miterlimit:4;stroke-opacity:1;stroke-dasharray:none;stroke-dashoffset:4"
       d=""
       id="path4031"
       inkscape:connector-curvature="0" />
    <path
       style="opacity:0.30530976;fill:#00baf2;fill-opacity:0.44444442;stroke:#000000;stroke-width:2;stroke-miterlimit:4;stroke-opacity:1;stroke-dasharray:none;stroke-dashoffset:4"
       d="m 610.31694,561.18081 c 0,-0.78723 0.66069,-2.30483 1.4682,-3.37245 1.4394,-1.90305 1.46882,-1.89939 1.5,0.18643 0.0175,1.17015 -0.6432,2.68775 -1.4682,3.37244 -1.21451,1.00796 -1.5,0.97248 -1.5,-0.18642 z"
       id="path4033"
       inkscape:connector-curvature="0" />
    <path
       style="fill:#00ffff;fill-opacity:0.54497357999999996;stroke:#000000;stroke-width:2.82842708000000000;stroke-miterlimit:4;stroke-opacity:1;stroke-dasharray:none;stroke-dashoffset:0;opacity:0.19469027"
       d="m 0.66102578,528.42963 0,-122.99505 155.91704422,-0.39508 155.91705,-0.39508 8.93641,-4.12601 c 16.63499,-7.6805 25.02964,-20.43538 37.71323,-57.30169 4.3983,-12.78416 8.97931,-25.19388 10.18001,-27.57716 3.05816,-6.07012 9.00186,-12.11141 11.91579,-12.11141 8.24129,0 17.50492,16.44238 30.27717,53.74011 8.98127,26.2273 15.0615,38.72552 20.93537,43.03368 3.97222,2.91342 4.7696,2.93015 157.33125,3.30042 l 153.3388,0.37215 0,123.72509 0,123.72509 -198.43727,0 c -136.82034,0 -201.01906,-0.47727 -206.7519,-1.53704 -11.30087,-2.08908 -20.05105,-6.44337 -27.09481,-13.48297 -7.18596,-7.18173 -10.2411,-11.96077 -21.58869,-33.77036 -9.4471,-18.15693 -15.07926,-25.34641 -22.2758,-28.43514 -11.27247,-4.8381 -20.09822,2.0738 -29.44258,23.05793 -3.74155,8.40218 -8.20205,17.50409 -9.91221,20.22645 -8.97812,14.29199 -28.46327,26.19964 -50.88928,31.09918 -11.82525,2.58353 -18.52001,2.7829 -94.398751,2.81134 l -81.67083322,0.0306 0,-122.99506 z M 399.46925,613.24092 c 0,-0.77782 -0.99747,-1.41421 -2.21662,-1.41421 -1.45051,0 -1.96056,-0.85539 -1.47574,-2.47488 2.63396,-8.79863 5.35179,-21.79294 4.69538,-22.44936 -0.42937,-0.42937 -2.79877,0.70726 -5.26533,2.52584 -3.39783,2.50521 -3.92461,3.42007 -2.1737,3.77508 1.40927,0.28575 2.03707,1.38934 1.609,2.82843 -0.38606,1.29792 -1.44266,5.38274 -2.348,9.07737 -0.97458,3.97727 -2.4429,6.71752 -3.59947,6.71752 -1.07439,0 -1.95344,0.63639 -1.95344,1.41421 0,0.77782 2.86378,1.41421 6.36396,1.41421 3.50018,0 6.36396,-0.63639 6.36396,-1.41421 l 0,0 z m 11.76257,-11.66726 c -0.63579,-1.75009 -1.1051,-7.95495 -1.04293,-13.78858 0.13647,-12.80384 3.96623,-23.6918 11.38006,-32.35319 2.80859,-3.28121 4.70101,-6.37133 4.20537,-6.86697 -1.69938,-1.69938 -12.28552,10.21499 -15.99371,18.00043 -4.81882,10.11726 -6.14992,26.95364 -2.66394,33.6948 2.68953,5.20098 5.89963,6.22561 4.11515,1.31351 l 0,0 z m 79.20965,-2.39039 c 2.76886,-3.06481 5.95818,-7.36049 7.08737,-9.54594 5.50918,-10.66258 6.98984,-27.30527 3.22987,-36.30415 -2.36262,-5.65452 -6.11661,-7.30275 -4.47344,-1.9641 2.55805,8.31115 2.93009,12.29384 1.87396,20.06049 -1.38291,10.16968 -6.16076,21.02801 -12.3589,28.0873 -3.08852,3.51763 -3.90869,5.23877 -2.49643,5.23877 1.15679,0 4.36869,-2.50757 7.13757,-5.57237 l 0,0 z m -34.75723,-2.87753 c 4.41488,-6.51595 4.26432,-11.34909 -0.35355,-11.34909 -3.85209,0 -4.88812,3.73859 -1.8719,6.75481 1.27538,1.27538 1.16056,2.24902 -0.49199,4.17193 -3.67309,4.27399 -4.6024,6.47936 -2.42917,5.76471 1.08055,-0.35532 3.39652,-2.75938 5.14661,-5.34236 l 0,0 z m -75.45476,0.20389 c 1.47934,-2.39362 6.51185,-27.86452 6.51185,-32.95822 0,-6.29657 -3.83105,-8.40064 -9.05886,-4.97526 -2.93134,1.9207 -3.49579,1.90603 -5.54587,-0.14402 -1.95725,-1.95726 -2.78124,-2.01537 -5.78462,-0.40802 -3.48648,1.8659 -5.79515,5.46209 -4.40135,6.85588 0.40244,0.40246 2.00843,-0.42365 3.56883,-1.8358 2.74568,-2.4848 2.83656,-2.48073 2.82031,0.12657 -0.01,1.48174 -0.9347,6.14306 -2.05658,10.35849 -2.14309,8.05258 -1.8699,10.01324 1.3952,10.01324 1.15984,0 2.59401,-2.49559 3.45408,-6.01041 2.10596,-8.60643 6.01792,-15.8002 8.89134,-16.35045 3.3969,-0.65051 3.2103,2.68362 -1.10242,19.69718 -1.96751,7.76178 -3.20274,14.71837 -2.74496,15.45908 1.02577,1.65973 3.07966,1.74679 4.05305,0.17179 l 0,-5e-5 z m 51.04167,-5.86716 c 0.5458,-0.88311 1.78029,-0.80811 3.40556,0.20688 3.63027,2.26714 9.20248,0.44981 11.44002,-3.73109 2.8214,-5.27182 0.42131,-6.23934 -3.47099,-1.39924 -4.88032,6.06869 -6.869,3.37392 -4.40454,-5.9684 2.58316,-9.79234 3.50239,-11.09889 5.69701,-8.09758 2.08555,2.85219 5.02852,1.54069 5.02852,-2.2409 0,-3.20956 -4.58638,-4.9269 -8.11483,-3.03853 -1.66049,0.88867 -3.43462,0.88588 -5.0317,-0.008 -3.38034,-1.89172 -7.68734,-0.27326 -10.4359,3.92157 -1.66926,2.54761 -1.86998,3.92478 -0.73714,5.05762 1.13284,1.13285 2.01243,0.55662 3.23022,-2.11613 1.98632,-4.35952 5.32672,-6.01155 6.41595,-3.17307 0.93932,2.44782 -3.18457,17.23686 -5.14418,18.44797 -0.76759,0.47497 -1.39563,-0.12902 -1.39563,-1.34165 0,-1.26198 -1.20949,-2.20479 -2.82842,-2.20479 -2.75932,0 -3.99568,4.01819 -1.88562,6.12825 1.43683,1.43683 7.26378,1.12364 8.23167,-0.44243 l 0,0 z m 50.14021,-3.13076 c 3.02223,-5.40882 0.89295,-6.46679 -3.33605,-1.65757 -3.36745,3.82946 -3.56581,3.88324 -3.60805,0.97817 -0.0246,-1.69075 0.70101,-6.30462 1.61241,-10.25305 1.40783,-6.09904 2.15241,-7.17896 4.94975,-7.17896 1.81096,0 3.29264,-0.6364 3.29264,-1.41421 0,-0.77782 -1.23278,-1.41422 -2.73951,-1.41422 -2.34106,0 -2.62269,-0.71992 -1.93629,-4.94975 1.09015,-6.71776 -3.19345,-7.02601 -4.91328,-0.35355 -0.81915,3.17797 -2.14076,4.73564 -4.28309,5.04811 -3.7683,0.54962 -4.14867,3.08362 -0.46287,3.08362 2.52377,0 2.54319,0.38588 0.45799,9.10087 -1.82581,7.63086 -1.8713,9.46985 -0.2817,11.38522 2.79742,3.37066 8.73864,2.11635 11.24805,-2.37468 z m -183.73587,-6.12628 c 1.59945,-1.9272 2.06379,-1.90935 4.35882,0.16762 3.43567,3.10926 9.36966,1.55115 11.44574,-3.00535 2.10688,-4.62412 0.65465,-5.83724 -2.82376,-2.35882 -1.88078,1.88077 -3.98216,2.55214 -6.48854,2.07302 -3.65777,-0.69923 -3.59394,-0.82936 4.81611,-9.81974 4.68766,-5.01111 8.11555,-9.7704 7.61757,-10.57616 -0.58047,-0.93919 -1.67958,-0.69091 -3.06221,0.69172 -1.93288,1.93288 -2.50274,1.93008 -5.48953,-0.0269 -3.01899,-1.97812 -3.6656,-1.9656 -6.86828,0.13294 -1.94455,1.27412 -3.53554,3.25649 -3.53554,4.40529 0,2.51752 0.65059,2.58959 4.0745,0.45132 1.44204,-0.90058 3.74565,-1.20619 5.11914,-0.67914 2.10831,0.80905 1.25647,2.25911 -5.46952,9.3106 -7.50043,7.86343 -9.58315,11.39072 -6.7257,11.39072 0.68257,0 2.04661,-0.97065 3.0312,-2.157 l 0,-1.5e-4 z m 309.98646,-3.70265 c 0.4044,-1.21319 1.29351,-1.21319 3.56041,0 1.66177,0.88936 4.00317,1.61701 5.20311,1.61701 2.54353,0 7.3478,-6.68419 5.86792,-8.16408 -0.55262,-0.5526 -1.62503,0.10366 -2.38316,1.45835 -1.39992,2.5015 -10.40487,3.64931 -9.48745,1.20931 0.25927,-0.68957 3.33518,-3.42132 6.83536,-6.07056 9.53542,-7.21719 9.4252,-16.71729 -0.19395,-16.71729 -3.09701,0 -4.77077,1.11611 -6.89262,4.5962 -3.41539,5.60165 -3.54045,7.94132 -0.4871,9.11299 2.94764,1.13112 6.41769,-3.38374 5.86169,-7.6266 -0.22514,-1.71804 0.0679,-3.15306 0.65132,-3.18894 3.36176,-0.20673 3.88909,0.25178 3.88909,3.38143 0,2.04362 -1.77087,5.06595 -4.35028,7.42462 -8.68864,7.94505 -11.20607,10.7913 -11.20607,12.66976 0,2.32603 2.3802,2.55236 3.13173,0.2978 l 0,0 z m -253.44753,-4.03984 c 0,-0.86386 -6.57184,-1.41421 -16.8871,-1.41421 -9.73257,0 -17.25741,0.59916 -17.76114,1.41421 -0.56496,0.91413 5.40647,1.41421 16.8871,1.41421 10.89794,0 17.76114,-0.54648 17.76114,-1.41421 z m -6.06923,-10.94955 c -5.28261,-0.27284 -13.55576,-0.27081 -18.38477,0.004 -4.82901,0.27532 -0.50687,0.49856 9.60475,0.49608 10.11163,-0.003 14.06265,-0.22773 8.78002,-0.50057 l 0,2.5e-4 z m 238.71987,-5.45216 c 3.15916,-2.06996 3.63817,-2.06996 5.70812,0 3.2999,3.29991 7.1134,2.77595 11.86008,-1.62951 6.10208,-5.66345 6.40568,-13.97239 0.71835,-19.65972 -4.52976,-4.52974 -5.54795,-3.71252 -2.63916,2.11826 2.84689,5.70674 1.53142,12.2721 -3.06195,15.28178 -2.72159,1.78326 -3.84374,1.8888 -5.49672,0.51694 -1.82361,-1.51346 -1.81026,-2.23955 0.10946,-5.95177 1.20252,-2.32542 1.84624,-5.11446 1.43051,-6.19788 -1.3655,-3.55841 -4.87591,-0.49135 -5.81768,5.08293 -1.13726,6.73137 -4.00115,9.58537 -7.06611,7.04169 -1.16672,-0.9683 -2.11894,-3.11451 -2.11603,-4.76935 0.007,-3.72374 4.92674,-12.01184 7.78098,-13.10712 3.21322,-1.23302 2.52286,-3.17906 -0.81786,-2.30545 -1.6121,0.42158 -5.11228,2.82364 -7.77817,5.3379 -4.10327,3.86982 -4.84715,5.53329 -4.84715,10.83908 0,9.42671 4.61288,12.26429 12.03333,7.40222 z m 12.31161,-43.19806 c 0.40439,-1.2132 1.29351,-1.2132 3.56041,0 1.66177,0.88936 4.00317,1.61701 5.2031,1.61701 2.54354,0 7.3478,-6.68419 5.86793,-8.16408 -0.55262,-0.55261 -1.62503,0.10366 -2.38316,1.45835 -1.39992,2.5015 -10.40487,3.64931 -9.48745,1.20931 0.25927,-0.68957 3.33518,-3.42132 6.83536,-6.07056 9.53542,-7.21719 9.42519,-16.71729 -0.19395,-16.71729 -3.09701,0 -4.77078,1.11611 -6.89262,4.5962 -3.6159,5.93052 -3.62889,9.54594 -0.0342,9.54594 3.14805,0 6.08131,-4.49451 5.43253,-8.32406 -0.23817,-1.40587 0.0443,-2.65366 0.62763,-2.77288 5.57334,-1.13902 5.29051,5.39504 -0.46119,10.6545 -8.68865,7.94505 -11.20608,10.7913 -11.20608,12.66976 0,2.32602 2.38021,2.55236 3.13174,0.2978 l -3e-5,0 z m -13.90904,-16.41421 c 0.39985,-1.36118 1.14732,-4.84726 1.66103,-7.74685 0.81687,-4.61067 1.26616,-5.09421 3.58192,-3.85485 6.95689,3.72322 18.26228,-5.91555 18.26228,-15.57011 0,-9.17539 -6.47829,-12.52443 -15.35125,-7.93604 -4.7131,2.43724 -6.33572,5.79094 -10.14425,20.96676 -1.61027,6.41642 -3.25757,12.77991 -3.66068,14.14109 -0.52606,1.77637 0.0653,2.47487 2.09551,2.47487 1.55564,0 3.15559,-1.11369 3.55544,-2.47487 z M 35.673585,448.96924 c 1.240018,-1.24001 2.145465,-1.21524 3.732858,0.10225 3.414866,2.83408 9.701256,1.28325 12.083996,-2.98108 2.746028,-4.91451 0.946894,-6.76459 -2.472188,-2.54221 -2.094464,2.58656 -3.433952,3.03898 -6.625715,2.2379 l -4.00053,-1.00407 8.004568,-8.08897 c 7.319538,-7.39677 9.788216,-11.54254 6.873196,-11.54254 -0.622254,0 -1.895046,0.76367 -2.828427,1.69705 -1.319932,1.31993 -2.07418,1.31993 -3.394112,0 -2.96321,-2.96321 -8.125421,-1.99918 -9.876697,1.84446 -1.964775,4.31221 -0.669668,6.07551 2.289144,3.1167 1.217727,-1.21773 3.431596,-1.83225 5.063467,-1.40551 2.588878,0.67701 2.061003,1.63756 -4.92487,8.96151 -7.277161,7.62935 -9.427887,11.24163 -6.69318,11.24163 0.622254,0 1.868074,-0.73671 2.76849,-1.63712 z m 77.417415,0.22291 c -0.48071,-0.77782 -1.77109,-1.41422 -2.8675,-1.41422 -1.09641,0 -1.72667,-0.79549 -1.40057,-1.76776 0.32609,-0.97228 1.28524,-4.47245 2.13144,-7.77818 l 1.53855,-6.01041 6.97217,0 c 4.95114,0 6.80031,0.51243 6.37927,1.76777 -0.32609,0.97227 -1.28524,4.47245 -2.13144,7.77818 -1.15327,4.5053 -2.23318,6.0104 -4.31246,6.0104 -1.52566,0 -2.77392,0.6364 -2.77392,1.41422 0,0.78568 3.77123,1.41421 8.48528,1.41421 4.71404,0 8.48528,-0.62853 8.48528,-1.41421 0,-0.77782 -0.95459,-1.41422 -2.12132,-1.41422 -2.78619,0 -2.74864,-0.41102 1.6365,-17.91124 2.8722,-11.46239 4.37202,-15.15734 6.36396,-15.67825 5.2935,-1.38428 2.37285,-3.18006 -5.17203,-3.18006 -7.35488,0 -10.17456,1.60624 -5.78,3.29259 1.67461,0.64261 1.71802,1.86934 0.26809,7.57592 l -1.73007,6.80916 -6.63206,0.43104 c -7.3273,0.47623 -7.55157,0.10802 -5.16594,-8.48144 0.86733,-3.12283 2.56962,-5.57722 4.23475,-6.10571 5.32923,-1.69143 2.734,-3.52156 -4.99376,-3.52156 -7.35623,0 -10.17441,1.6063 -5.77803,3.29334 1.6862,0.64706 1.56229,2.50207 -0.78947,11.81857 -5.58034,22.10651 -5.40757,21.65764 -8.336254,21.65764 -1.525655,0 -2.773918,0.6364 -2.773918,1.41422 0,0.7872 3.799062,1.41421 8.568742,1.41421 5.35238,0 8.24067,-0.53084 7.69471,-1.41421 z m -21.213199,-7.07107 c 0.565049,-0.91427 -5.434287,-1.41421 -16.970563,-1.41421 -11.536276,0 -17.535612,0.49994 -16.970563,1.41421 0.499854,0.80878 7.76504,1.41421 16.970563,1.41421 9.205523,0 16.470709,-0.60543 16.970563,-1.41421 z m 3.535534,-11.31371 c 0,-0.86738 -6.835365,-1.41421 -17.67767,-1.41421 -10.842304,0 -17.67767,0.54683 -17.67767,1.41421 0,0.86738 6.835366,1.41421 17.67767,1.41421 10.842305,0 17.67767,-0.54683 17.67767,-1.41421 z"
       id="path3072"
       inkscape:connector-curvature="0" />
    <path
       style="opacity:0.19469030000000001;fill:#552200;fill-opacity:0.54497357999999996;stroke:#000000;stroke-width:2.82842708000000000;stroke-miterlimit:4;stroke-opacity:1;stroke-dasharray:none;stroke-dashoffset:0"
       d="m 592.17942,483.60468 c -1.94197,-1.94197 -0.8324,-11.24176 1.87012,-15.6742 2.97727,-4.88308 7.97692,-6.19268 9.40766,-2.46423 1.41366,3.68393 -0.83118,11.51547 -4.40666,15.37348 -3.4968,3.7731 -5.18402,4.45204 -6.87112,2.76495 z"
       id="path3872"
       inkscape:connector-curvature="0" />
    <path
       style="opacity:0.19469030000000001;fill:#180e00;fill-opacity:0.54497355;stroke:#000000;stroke-width:2.82842708000000000;stroke-miterlimit:4;stroke-opacity:1;stroke-dasharray:none;stroke-dashoffset:0"
       d="M 1.0339463,999.67478 C 0.52001016,971.08998 0.09857721,931.95162 0.09742872,912.70064 l -0.0020884,-35.00178 349.79300968,0 c 192.38615,0 359.36483,-0.4143 371.06375,-0.92067 l 21.27076,-0.92067 0.87651,41.57931 c 0.4821,22.86862 1.03856,62.42128 1.23661,87.89477 l 0.36006,46.3155 -371.36383,0 -371.3638344,0 -0.9344293,-51.97232 z M 29.510983,918.42821 c 1.319932,-1.31993 2.07418,-1.31993 3.394112,0 4.09258,4.09258 13.859293,0.15102 13.859293,-5.5932 0,-3.41143 -1.112679,-3.29497 -4.130902,0.43238 -1.935667,2.39045 -3.319428,2.82667 -6.463489,2.03756 l -4.000531,-1.00407 8.004568,-8.08897 c 7.319538,-7.39672 9.788216,-11.54249 6.873197,-11.54249 -0.622254,0 -1.895046,0.76367 -2.828427,1.69706 -1.319933,1.31993 -2.074181,1.31993 -3.394113,0 -2.96321,-2.96321 -8.125421,-1.99918 -9.876696,1.84445 -1.964776,4.31221 -0.669669,6.07551 2.289143,3.1167 1.217727,-1.21773 3.431597,-1.83225 5.063467,-1.4055 2.588878,0.677 2.061003,1.63755 -4.92487,8.96151 -7.277161,7.62934 -9.427887,11.24162 -6.69318,11.24162 0.622254,0 1.895047,-0.76367 2.828428,-1.69705 z m 89.375957,-7.80087 c 2.71981,-9.94263 4.82201,-13.12949 8.66078,-13.12949 3.23032,0 3.29216,1.58461 0.43705,11.19881 -2.61228,8.79652 -1.96725,11.4286 2.80075,11.4286 3.47876,0 7.90275,-4.5304 7.90275,-8.09284 0,-3.11295 -2.02126,-1.96454 -4.64035,2.63648 -3.47526,6.10508 -4.28273,4.41665 -1.6221,-3.39185 1.21802,-3.5747 2.01166,-8.61469 1.76364,-11.19998 -0.41615,-4.33794 -0.87006,-4.735 -5.88418,-5.14721 -5.86634,-0.48228 -5.63464,0.33312 -2.98746,-10.51349 0.90288,-3.69948 0.70035,-3.88909 -4.15391,-3.88909 -5.10727,0 -6.85871,1.85211 -3.11129,3.29014 1.64377,0.63077 1.27853,3.56058 -2.09035,16.76831 -4.7833,18.75291 -4.89042,19.89327 -1.81206,19.28968 1.52447,-0.29892 3.16472,-3.50137 4.73673,-9.24807 z m -33.231679,1.01264 c 0.565049,-0.91427 -5.434287,-1.41421 -16.970563,-1.41421 -11.536276,0 -17.535612,0.49994 -16.970563,1.41421 0.499854,0.80878 7.76504,1.41422 16.970563,1.41422 9.205524,0 16.470709,-0.60544 16.970563,-1.41422 z m 21.920309,-3.53553 c 0,-1.5994 -1.71921,-2.12132 -6.9876,-2.12132 -6.604206,0 -9.605352,1.32042 -7.587492,3.33828 0.497399,0.4974 3.980276,0.90436 7.739732,0.90436 5.13307,0 6.83536,-0.5283 6.83536,-2.12132 z m -18.384775,-7.77818 c 0,-0.86738 -6.835365,-1.41421 -17.67767,-1.41421 -10.842304,0 -17.677669,0.54683 -17.677669,1.41421 0,0.86739 6.835365,1.41422 17.677669,1.41422 10.842305,0 17.67767,-0.54683 17.67767,-1.41422 z"
       id="path3874"
       inkscape:connector-curvature="0" />
  </g>
</svg>
